P3
#myPPmImage
8 8
255
1  175  255   100 255  145       145  175  175    255   175 255  1  175  255   100 255  145       145  175  175    255   175 255
145  175  145    175 255 175     175  175  145     175    145  175 145  175  145    175 255 175     175  175  145     175    145  175
175  145  175    175  255  175       175 15 175    145   175  145 175  145  175    175  255  175       175 15 175    145   175  145
255 0 255  175  175  255       175  145  0    255  255 255  255 0 255  175  175  255       175  145  0    255  255 255
1  175  255   100 255  145       145  175  175    255   175 255  1  175  255   100 255  145       145  175  175    255   175 255
145  175  145    175 255 175     175  175  145     175    145  175 145  175  145    175 255 175     175  175  145     175    145  175
175  145  175    175  255  175       175 15 175    145   175  145 175  145  175    175  255  175       175 15 175    145   175  145
255 0 255  175  175  255       175  145  0    255  255 255  255 0 255  175  175  255       175  145  0    255  255 255
